<?xml version="1.0" encoding="utf-8"?>
<!-- Generator: Adobe Illustrator 22.0.1, SVG Export Plug-In . SVG Version: 6.00 Build 0)  -->
<svg version="1.1" id="Layer_1" xmlns="http://www.w3.org/2000/svg" xmlns:xlink="http://www.w3.org/1999/xlink" x="0px" y="0px"
	 viewBox="0 0 803.9 216.1" style="enable-background:new 0 0 803.9 216.1;" xml:space="preserve">
<style type="text/css">
	.st0{display:none;fill:#FEFEFE;}
	.st1{fill:#030303;}
	.st2{fill:#0AB7BF;}
	.st3{fill:#FEFEFE;}
</style>
<rect x="93" y="286.6" class="st0" width="760" height="234.6"/>
<g>
	<path class="st1" d="M558.5,50.8c0,19.2,0,38.4,0,57.6c0,1.8,0.1,3.7,0.3,5.5c0.5,3.6,4.5,5.7,7.8,4.2c3.6-1.6,5.9-4.5,7.5-8
		c6.6-14.4,13.1-28.7,19.6-43.1c3.9-8.7,7.8-17.4,11.7-26.1c0.3-0.7,0.4-1.6,1.7-1.8c1.6,1.5,2,3.6,2.9,5.6
		c9.2,20.7,18.3,41.3,27.4,62c1.4,3,2.7,6.1,4.8,8.8c2.4,3,5.2,4.1,8.2,3c3.3-1.2,4.3-3.7,4.3-7c0-20.2,0-40.5,0-60.7
		c0-4-1.9-6.1-6-6.7c-1.7-0.3-3.4-0.4-5.1-0.6c-0.4-0.8-0.4-1.5,0.2-2.5c0.8,0,1.7,0,2.5,0c23.1,0,46.2-0.1,69.3,0.1
		c8.2,0.1,16.5-0.6,24.4,2.1c12.6,4.3,18.5,16.8,13.4,28.7c-2.5,5.9-7.6,8.7-13.2,10.8c-0.8,0.3-1.7,0.5-2.9,0.9
		c3.1,4.3,6,8.5,9,12.6c4,5.5,7.9,11,11.9,16.5c2.3,3.3,4.9,6.3,9.2,6.4c0.8,0.9,0.6,1.7,0.4,2.5c-0.3,0.1-0.6,0.2-0.9,0.2
		c-8.2,0-16.5,0-24.9,0c-8.7-12.3-17.3-24.6-26-36.9c-1.7,0-3.3,0-5.2,0c0,9.2-0.2,18.3,0.1,27.4c0.1,4.4,2.4,6,6.9,6.6
		c1.3,0.1,2.6,0.2,3.8,0.4c0.6,0.8,0.4,1.6,0.2,2.6c-37.1,0-74.3,0-111.5,0c-0.3-0.7-0.3-1.5,0-2.3c3-0.9,6.6,0.2,9.2-3.2
		c-0.4-6.2-4.2-11.5-6.3-17.4c-9.6,0-18.8,0-28.4,0c-1.9,4.3-4.3,8.4-5,13.3c-0.4,3.5,1.6,5.8,5.6,6.5c1.6,0.3,3.2,0.3,4.8,0.5
		c0.3,1,0.3,1.8,0,2.7c-20.8,0-41.6,0-62.5,0c0-0.8,0-1.6,0-2.3c10.3-1,11.2-2,11.2-12.4c0-7.5,0-15.1,0-22.6c0-0.2-0.1-0.4-0.2-0.8
		c-9.2,0-18.5,0-28,0c-0.6,2.1-0.2,4.3-0.2,6.5c-0.1,6.5,0,13,0,19.5c0,7,1.5,8.6,8.5,9.4c0.8,0.1,1.6,0.1,2.4,0.2
		c0.6,0.6,0.4,1.3,0.3,2.2c-14,0-28,0-42,0c-0.5-0.6-0.2-1.2-0.1-1.9c0.2-0.1,0.3-0.3,0.5-0.3c1.5-0.2,3-0.3,4.5-0.5
		c4.1-0.6,5.6-2.1,6-6.2c0.5-6.1,0.2-12.2,0.2-18.3c0.5-1.3,1.7-1.9,2.9-2.5c8.6-4.2,16.8-9,24.9-14c6.7,0,13.5,0,20.5,0
		c0-4.2,0-8.1,0-12c0.3-1.7,1.7-2.4,2.9-3.3c3.4-2.5,6.8-5,10.3-7.4C554.4,53.6,556.1,51.6,558.5,50.8z M674.8,81.2
		C674.8,81.2,674.8,81.2,674.8,81.2c-0.1,10.3,0,20.5-0.1,30.8c0,3.3,1.7,5.4,4.5,6.5c7,2.6,12.6-1.4,12.7-8.8c0-0.3,0-0.6,0-0.9
		c0-18.5-0.1-37,0-55.5c0.1-7.7-3.4-10.2-11.2-9.2c-4.1,0.5-5.9,2.6-5.9,6.7C674.8,60.8,674.8,71,674.8,81.2z M711.1,45.6
		c0,11.9,0,23.4,0,35.2c4.3-0.3,8.5-0.2,12.5-0.9c7.9-1.4,11.8-6.7,12-16.1c0.2-8.5-2.5-15.4-11.8-17.6
		C719.7,45.2,715.4,45.6,711.1,45.6z M599.3,66.7c-4.2,9.4-8.1,18.2-12.1,27.2c8.2,0,15.9,0,23.8,0
		C607.1,84.9,603.3,76.2,599.3,66.7z"/>
	<path class="st2" d="M518.7,77.8c-8.1,5.1-16.4,9.8-24.9,14c-1.2,0.6-2.3,1.1-2.9,2.5c-0.3-1.4-1.2-0.9-1.9-0.6
		c-6.4,3.5-13.2,6.2-19.8,9.4c-2.1,1-4.6,1.2-6,3.3c-3.2,0.3-5.8,2-8.5,3.4c-0.4-0.4-0.9-0.5-1.4-0.4c-3.3,1.2-6.7,2.4-10,3.7
		c-1,0.4-2.4,2.3-2.8,3.6c-1.6,1.4-3.2,2.8-4.4,4.7c-2.5,1.3-4.2,3.5-6,5.5c-10.4,11.8-21,23.4-29.8,36.5c-1.1,1.6-1.8,3.3-2.5,5.1
		c-0.5,1.2-0.3,2,0.4,3c5.5,0.7,9.6-2.4,14-4.9c12-6.7,21.9-16.3,33.4-23.6c11.2-7.2,23.1-13.1,36.2-15.7c5.2-1,10.9-1.5,16.2-0.1
		c6.7,5.7,4.5,13.3-0.2,19.7c-4.1,5.7-9.2,10.6-14.8,14.9c-0.6,0.4-1.1,0.8-1.4,1.5c5.4,0.3,9.9-1.8,14.2-4.5
		c9.4-5.9,17.6-13.4,26.6-19.9c6.5-4.6,12.9-9.4,20.7-11.6c2.4-0.7,4.9-0.5,7.3-0.2c2.8,0.3,4.3,3.6,3.4,6.6
		c-1.4,4.8-4.6,8.4-7.7,11.9c-3.6,4-7.3,7.8-11,11.7c-0.6,0.7-1.3,1.3-1.2,2.7c2.4-0.8,4.2-2.5,6.1-3.9
		c12.6-9.2,25.1-18.4,39.2-25.1c4.9-2.3,10-4.5,15.8-4.1c3.8,0.3,3.8,0.1,6.7,3.5c1.3,5.7-2.4,9.2-5.4,12.8
		c-5.5,6.4-11.6,12.2-17.5,18.2c-1.9,1.9-3.4,4.2-5.1,6.3c-1,1.2-1.5,2.6-0.8,4.3c4.6,0.6,8.3-1.9,11.9-4
		c9.7-5.4,18.5-12.2,27.1-19.1c1.1-0.9,2.3-1.7,3.9-1.1c0,2.9-2.6,3.7-4.2,5c-12.3,9.8-24.4,19.9-39.8,24.9c-3.4,1.1-6.7,1.2-10.1,1
		c-4.2-0.3-6.4-3.8-5.2-7.9c1.4-4.6,4.3-8.4,7.5-11.7c7.5-7.7,15.2-15.3,22.8-22.9c1-1,2.2-1.9,1.4-3.6c-2.5-0.6-4.7,0.2-6.9,1.3
		c-14.4,6.8-27.3,16-40.1,25.3c-8.6,6.2-16.9,13-26.2,18.3c-2.7,1.5-8.1,1.1-10.2-0.9c9.8-15.8,23.9-28.1,36.1-42.5
		c-4.3-1.1-6.8,1.1-9.5,2.7c-9.9,6-18.5,13.8-28,20.5c-5.4,3.8-10.8,7.4-17.4,8.9c-2.6,0.6-5.2,0.6-8.1-0.3c-3.6,2-7.1,4.5-11,6.5
		c-8.9,4.7-17.9,8.5-28.2,7.5c-7.1-0.7-10-6.1-8.8-12.6c1.1-5.4,4-10.1,7.9-14.3c-2.1,0.4-2.7,1.2-5.9,3.6c-11,8.4-22,16.8-35.5,21
		c-5.3,1.6-10.3,1.5-14.6-0.6c-2.3-4.8-0.5-9.1,2.1-13.3c3.6-5.8,7.9-11.1,12.4-16.1c0.3-0.3,0.4-0.6,0.9-1.4c-3.3,1-5.2,3.3-7.4,5
		c-9.5,7.6-19,15.2-29.5,21.4c-6.3,3.8-12.9,6.8-20.7,6.2c-5.2-0.4-6.4-4.7-5.5-8c0.6-2.1,1.7-3.9,3.3-6.5c-3,1.5-5,3.1-7.1,4.4
		c-6.5,3.9-13.1,7.5-20.5,9.5c-3.4,0.9-6.9,1.1-10.3,0.4c-4.2-1-6.5-5.9-5.2-10.7c1.3-4.7,3.8-8.8,7-12.4
		c8.2-9.4,18.1-16.9,29.4-22.2c7-3.3,14.2-5.7,21.8-7c7.9-1.3,11.3,1.4,12,9.3c14.7-9.8,18.5-11.1,22.4-7.4c-0.8,2.6-2.8,4.3-4.7,6
		c-11,10-21.6,20.4-30.8,32.1c-1.3,1.7-1.7,3.3-1.3,5.3c2.4,1.1,4.7,0,6.7-1.1c7.8-4.2,15-9.4,22.1-14.7
		c9.6-7.3,19.4-14.3,28.9-21.8c4-3.2,7.7-6.9,10.8-11.1c0.6-0.8,0.2-1-0.2-1.4c2-0.7,3.6-1.9,4.6-4.3c-7.8,1.3-15.2,1-22.6-0.3
		c0-1-0.8-0.9-1.4-1.1c-9.7-4.1-12.5-13.2-8.6-22.5c1.9-4.6,4.5-8.9,9.4-11c0.7,0.6,0.8,1.3,0.1,1.8c-4.5,3.2-6.8,7.7-7.8,13
		c-1.1,6.2,4.1,12.6,10,14.2c0.1,0,0.2-0.3,0.4-0.5c6.3,3.7,13,3.8,19.9,2.6c3.6,0.5,6.4-0.7,8.8-3.5c2.1-2.5,4.5-4.7,6.9-6.9
		c0.8-0.8,1.3-1.6,1.1-2.7c1.9,0,2.4-1.6,3-3c0.5,0.8,1,0.6,1.6,0c1.6-1.7,3.3-3.3,4.9-5c11.2-11,22.8-21.6,35-31.4
		c2.1-1.7,4-3.6,6.3-5c1-0.6,0.5-1.7,1.1-2.4c0.9,0.3,1.5-0.3,2.1-0.8c3.8-3,7.7-5.9,11.5-8.9c1.3-1,3.2-1.4,3.7-3.3
		c3.2-0.5,5.5-2.6,8-4.4c10.4-7.4,21.1-14.3,32.7-19.6c6.8-3.1,13.9-5.5,21.7-5.2c8.6,0.4,11.7,7.4,8.5,14.9
		c-2,4.5-5.5,8.1-8.1,12.1c-2.7,4.2-7.2,6.2-10.6,9.5c-0.8,0.8-1.3,1.6-1.8,2.6c-2.5,0.8-4.1,2.9-6.2,4.3c-3.5,2.4-6.9,4.9-10.3,7.4
		c-1.2,0.9-2.6,1.6-2.9,3.3c-0.2-0.4-0.5-0.8-0.7-1.3C531.8,68.9,525.2,73.3,518.7,77.8z M448.5,107.6c6.8-1.3,12.4-5.4,18.9-7.6
		c7.3-2.5,14-6.7,21-10c1.4-0.6,2.2-1.5,2.6-2.9c0.6,0.9,1.2,0.4,1.8,0c1.9-1,3.8-2,5.5-3.1c4-2.6,8.6-4.3,12.2-7.7
		c1.4,0.6,2.4-0.4,3.4-1.1c5.5-3.6,11-7.1,16.3-10.9c3.2-2.3,7.1-4.1,9.1-7.8c4.6-2.3,8.1-6,11.8-9.4c2.1-1.9,4.7-3.5,5.7-6.4
		c3.3-0.8,4.9-3.6,6.7-6c3.7-5,7.4-9.9,6.9-16.5c-1.6-2.4-3.9-3-6.1-2.8c-7.8,0.9-14.6,4.3-21.1,8.5c-8.7,5.7-17.3,11.4-24.9,18.4
		c-2.5,2.3-6.2,3.2-7.8,6.5c-6.3,4.5-11.8,9.9-17.6,15c-1,0.8-1.5,1.8-1.9,3c-0.5-0.7-0.9-0.5-1.6,0c-6.3,4.8-11.3,10.9-17.2,16.2
		c-8.4,7.6-16.2,16-24.2,24.1c-0.2,0.2-0.5,0.5-0.7,0.7C447.9,108.3,448.2,108.2,448.5,107.6z M495.4,129.8
		c-6.5-1.5-11.4,1.7-16.2,4.7c-10,6.4-19,14.1-27.1,22.8c-3.5,3.8-6.8,7.9-9.2,12.5c-1,1.9-2.2,4.1-0.6,6.2c1.5,2,3.6,1,5.5,0.5
		c0.5-0.1,0.9-0.3,1.4-0.5c7.8-2.7,14.2-7.5,20.4-12.6c1.9-1.6,4.5-2.7,5.4-5.1c3.4-8.9,9.2-15.6,18-19.4
		C494.3,136,495.1,133,495.4,129.8z M307.5,173.9c4.6,0.8,8.3-0.8,11.9-2.5c7.8-3.8,14.8-8.9,21.5-14.5c6.7-5.6,13.1-11.5,18.4-18.6
		c1.3-1.8,2.3-3.8,1.6-6.1c-1.2-1.4-2.6-2.4-4.5-2c-2.1,0.5-4.3,1-6.2,2c-6.4,3.3-12.2,7.5-17.8,12.1c-7.6,6.2-15.3,12.3-21.6,20
		C308.8,167,305.6,169.6,307.5,173.9z M532.6,161.5c-0.4-0.6-0.7-0.3-0.9,0.1C532.1,162.1,532.3,161.8,532.6,161.5z M397.9,144.8
		c1.1,0.1,1.6,0.2,1.2-0.6C398.9,144.4,398.6,144.5,397.9,144.8z"/>
	<path class="st1" d="M140.8,90.7c0-13.2,0.1-25.5-0.1-37.8c-0.1-5.7-2.8-8.2-8.6-9.1c-0.9-0.1-1.8-0.3-2.7-0.4
		c-0.4-0.8-0.3-1.6,0-2.5c8.7,0,17.4,0,26.2,0c0.7,0.8,0.3,1.7,0.3,2.5c-0.3,0.1-0.5,0.2-0.7,0.3c-9.6,0.9-9.8,5.3-9.9,12.5
		c-0.2,10.4,0,20.7,0,31.1c0,11.9,0,23.8,0,35.7c-2,1-2.9-0.3-4-1.6c-16.7-20.5-33.3-40.9-50-61.3c-0.7-0.8-1.4-1.6-2.3-2.5
		c-0.8,1-0.5,1.9-0.5,2.8c0,15.6,0,31.1,0,46.7c0,4.6,0.7,9.1,5.7,11c2,0.8,4.3,0.9,6.5,1.3c0.2,0.8,0.4,1.5-0.4,2.3
		c-21.4,0-42.8,0-64.4,0c-0.8-0.6-0.6-1.5-0.3-2.4c1.1-0.1,2.2-0.3,3.3-0.4c6.3-0.7,7.8-2.3,7.8-8.7c0-13.1,0-26.2,0-39.4
		c0-6.3,0-12.6,0-18.9c0-5.7-1.7-7.6-7.5-8.2c-1.2-0.1-2.4-0.2-3.6-0.4c-0.4-0.8-0.4-1.5,0.1-2.4c21.7,0,43.4,0,65.3,0
		C114.2,57.3,127.2,73.7,140.8,90.7z M84,51c-1.4-1.8-2.8-3.7-4.6-5.1c-2.8-2.2-5.8-2.6-9.1-1.2c-3,1.3-3.5,3.9-3.5,6.8
		c0,1.2-0.1,2.4-0.1,3.7c0,18.7,0,37.4,0,56.1c0,5.4,3.3,8.1,8.6,7.5c5.9-0.7,8.6-3.6,8.6-9.7C84.1,89.8,84,70.6,84,51z"/>
	<path class="st2" d="M212.7,99.7c2.9-0.3,5.9-0.5,8.8-0.8c6.2-0.1,12.4-0.1,18.6,1.2c5.8,1.2,11.4,2.9,16.3,6.3
		c2.8,1.9,5,4.3,6.9,7.6c7.4-3.1,15.1-5.6,22.3-9.1c6.7-2.2,13.2-4.9,19.8-7.5c2.5-0.6,5.3-1,7.1-2.9c3.8-4,7.4-8.2,11-12.4
		c6-6,12.2-11.7,18.8-17c6.9-4.9,14-9.5,22.1-12.4c3.1-0.7,6.1-1.4,9.3-1.2c5.6,0.4,7.9,4.1,5.7,9.3c-1.3,3.1-3.5,5.6-6,7.9
		c-6.4,6-13.9,10.4-21.6,14.5c-1.3,0.7-2.9,0.9-3.8,2.4c-2.3-0.2-3.9,1.4-5.9,2c-3.4,1.4-6.9,2.8-10.4,4.1c-1.2,0.4-2.1,1-2.8,2.1
		c-1.9,2.8-3.8,5.6-5.8,8.5c-4,5.3-7.9,10.7-11.1,16.5c-0.9,0.9-1.7,1.8-2.2,3c-5.4,6.9-10.5,13.9-16.5,20.3
		c-21.4,23-47.3,37.3-78.6,41.5c-15.3,2-30.6,2.1-45.4-3.3c-3.6-1.3-6.8-3.2-10.1-5.4c-11.3,8.6-22.2,17.5-30.3,30.1
		c-1-2.6,0.2-3.9,0.9-5.2c4.8-8.4,11.7-15.1,18.8-21.5c2.3-2.1,4.8-4.1,7.3-6.3c-3.3-4.1-5.6-8.5-6.4-13.6
		c-1.8-11.7,2.3-21.5,9.4-30.4c2.5-3.1,5.5-5.7,8.3-8.4c1.6-1.2,3.3-2.4,4.9-3.7c7.6-4.7,15.6-8.9,24.1-11.7
		c0.5-0.2,0.8-0.6,1.2-0.8C202.5,102,207.6,100.8,212.7,99.7z M305.6,103.6c1.1-1.1,2.4-2.1,3.1-4.1c-1.4,0.5-2.5,0.6-3.4,1.4
		c-6.7,2.2-13.3,4.9-19.8,7.8c-7.1,2.4-13.8,5.6-20.7,8.6c1.6,10.2-2.2,18.1-9.1,24.9c-12.3,12.1-41,21.2-60.3,8.8
		c-10.2,6-20.3,12.2-30.2,19.5c4.3,5.1,9.7,7.8,15.7,9.3c22.6,5.6,43.9,2.1,63.7-10.1c14.9-9.1,26.8-21.6,37.7-35.1
		c3.2-4,6.8-7.8,9-12.5C296.7,116.2,301,109.8,305.6,103.6z M198.2,106.1c-1.8,0.7-3.6,1.2-5.4,2c-5.5,2.7-11.1,5.2-15.4,9.8
		c-1.6,0.9-2.9,2.2-4.2,3.5c-12.8,11.2-18.2,34.4-10.3,45.1c9.2-7.1,19.3-12.8,28.9-19.1c-4.3-7.5-4.9-11.2-2.3-13.9
		c0.3,4.7,1.7,8.8,5.4,12c0.7-0.3,1.3-0.5,1.9-0.9c9.6-5.1,19.3-9.9,29.2-14.4c6.2-2.8,12.4-5.5,18.6-8.3c2-0.9,4-1.7,6.1-2.6
		c2.6-0.6,5.1-1.7,7.4-3c-1.9-6.5-8.6-11.5-17.8-13.3c-6.1-1.5-12.4-1.9-18.7-1.5c-3.1,0-6.3,0.1-9.3,1.1
		C207.4,102.9,202.8,104.5,198.2,106.1z M366,55.6c-1,0.5-2,0.9-3,1.4c-8.3,5.1-14.9,12-21,19.4c-2.9,3.4-6,6.7-8.3,10.8
		c5.6-1.5,10.9-3.5,15.8-6.4c6.1-2.4,11.7-5.5,16.6-9.8c4.3-2.9,8.2-6.3,10.2-11.3c1.4-3.5-0.3-5.8-4-5.8
		C370.1,53.9,368,54.7,366,55.6z M258.5,119.7c-20.9,8.5-40.8,17.6-60.3,29.4c2,1,3.4,1.7,4.9,2.3c18.5,7.7,42.6-3,51.2-16.1
		C257.4,130.7,259,125.7,258.5,119.7z"/>
	<path class="st1" d="M348,85.5c0.8-1.5,2.5-1.7,3.8-2.4c7.8-4,15.2-8.5,21.6-14.5c2.5-2.3,4.7-4.8,6-7.9c2.2-5.2-0.1-8.8-5.7-9.3
		c-3.2-0.2-6.2,0.5-9.3,1.2c-5.5-8.4-13.9-6.9-22.1-7.1c0,0.9-0.1,1.5-0.1,2.1c0,5.8,0.1,11.5,0.1,17.3c-6.6,5.3-12.8,11-18.8,17
		c-0.1-1-0.2-2-0.2-3c0-9,0-18.1,0-27.1c0-4.1-1.7-7.1-4.6-7.7c-2.4-0.5-4.8-0.8-7.2-0.3c-4,0.8-5.8,2.7-5.8,6.8
		c-0.1,15.5-0.1,31-0.2,46.6c-6.6,2.6-13.1,5.4-19.8,7.5c0-17.2,0-34.3-0.1-51.5c0-7.5-1.4-9-8.8-9.8c-0.8-0.1-1.6-0.1-2.4-0.2
		c-0.3-0.9-0.4-1.7,0.3-2.6c2.3,0,4.7,0,7.1,0c21.7,0,43.5-0.1,65.2,0.1c7.3,0.1,14.6-0.3,21.8,1.4c14.2,3.3,21.4,16.5,16,29.4
		c-2.5,5.9-7.6,8.6-13.1,10.8c-0.8,0.3-1.7,0.5-3,0.9c3.2,4.4,6.3,8.8,9.4,13.1c4.5,6.2,8.9,12.3,13.4,18.4c1.4,1.9,3.1,3.1,5.3,3.7
		c1.3-0.1,2.3-0.9,3.4-1.4c7.4,1.3,14.8,1.6,22.6,0.3c-1,2.4-2.6,3.6-4.6,4.3c-14.7,0-29.4,0-44.6,0
		C365.2,109.8,356.6,97.7,348,85.5z"/>
	<path class="st1" d="M441.9,97.6c-0.6,1.4-1.1,2.9-3,3c-0.4-3.9-1.3-7.7-3.2-11.2c-2.9-5.1-8.3-7.5-13.9-6
		c0.3,10.1-0.4,20.2,0.4,30.3c-6.9,1.1-13.6,1-19.9-2.6c0-18.5,0.1-37,0.1-55.5c0-1.2-0.1-2.4-0.2-3.6c-0.5-6.3-1.6-7.5-8-8.2
		c-0.9-0.1-1.8-0.2-2.8-0.3c-0.6-0.7-0.3-1.4-0.2-2.4c22.4,0,44.8,0,67.4,0c0,7.9,0,15.7,0,23.6c-0.7,0.5-1.4,0.2-2.2,0.1
		c-1-2.5-1.4-5.1-2.3-7.6c-2.5-6.4-7.3-9.9-13.7-11c-6-1-12.1-0.6-18.4-0.5c0,10.9,0,21.6,0,32.3c8.6,0.4,15-2.4,17.1-18.3
		c0.8-0.6,1.7-0.4,2.8-0.1C441.9,72.2,441.9,84.9,441.9,97.6z"/>
	<path class="st1" d="M240.1,100.1c-6.1-1.4-12.3-1.4-18.6-1.2c0-14.7-0.1-29.5-0.1-44.2c0-1.3,0-2.6-0.1-4
		c-0.2-4.2-2.1-6.2-6.3-6.7c-1.5-0.2-3-0.3-4.5-0.4c-0.3-0.8-0.3-1.6-0.1-2.5c0.2-0.1,0.5-0.3,0.8-0.3c13.6,0,27.2-0.3,40.8,0.3
		c5.3,0.2,10.4,1.5,15.2,3.8c7.3,3.4,11.1,9.4,11.3,17.3c0.1,7.7-3.1,13.8-9.9,18c-5.7,3.5-12,4.5-18.5,4.8c-3.1,0.2-6.3,0-10,0
		C240.1,90.1,240.1,95.1,240.1,100.1z M240.4,45.8c0,11.7,0,23.3,0,34.9c1.5,0,2.8,0.1,4.1,0c7.4-0.4,12.2-4.6,13.6-11.9
		c0.4-2.3,0.6-4.6,0.5-7C258.5,50.5,252,44.7,240.4,45.8z"/>
	<path class="st1" d="M212.7,99.7c-5.1,1.1-10.2,2.3-15.3,3.4c-2.2-5.1-6.7-7.7-11.3-10.1c-6.5-3.4-13.4-6.3-19.3-10.6
		c-6.7-4.9-11.5-11-11.4-19.9c0.1-10.9,7.3-20.1,18.1-22.5c7.5-1.7,14.6-0.6,21.5,2.8c1.8,0.9,3.7,1.5,5.5,2.1
		c2.8-0.8,3.4-3.1,4-5.3c0.8-0.6,1.7-0.7,2.9,0.3c0,8.5,0,17.3,0,26.2c-0.8,0.3-1.8,0.2-2.9-0.1c-1.5-7.7-5-14.3-11.6-18.7
		c-5.8-3.9-12.2-4.9-18.6-1.5c-6.2,3.3-7.1,10.1-2.4,15.4c2.2,2.4,4.9,4.2,7.8,5.7c6.5,3.5,13.3,6.4,19.5,10.4
		C207.5,82.5,212.9,89.4,212.7,99.7z"/>
	<path class="st1" d="M323.1,102.1c1.9-2.8,3.9-5.6,5.8-8.5c0.7-1,1.6-1.6,2.8-2.1c3.5-1.3,6.9-2.7,10.4-4.1
		c0.1,6.8,0.1,13.6,0.2,20.4c0,9.2,1.6,10.8,10.7,11.1c0.8,0.7,0.6,1.6,0.4,2.5c-0.2,0.1-0.4,0.3-0.5,0.3c-14.3,0.1-28.6,0.3-43-0.1
		c0.5-1.2,1.3-2.2,2.2-3c1.8,0.8,3.6,0.1,5.4-0.1c3.4-0.4,5.1-2.2,5.6-5.6C323.5,109.4,323.4,105.7,323.1,102.1z"/>
	<path class="st1" d="M172.1,115.7c-1.6,1.2-3.3,2.4-4.9,3.7c-5-1.1-6.2-0.6-9,4c-0.8,0-1.7,0-2.7,0c0-10.1,0-20.1,0-30.3
		c0.9,0,1.7,0,2.7,0C160.1,102.3,164.4,110,172.1,115.7z"/>
	<path class="st1" d="M436,121.5c1.2-1.8,2.8-3.3,4.4-4.7c5.4-1.1,10.2-3.2,14.2-7c2.7-1.5,5.3-3.1,8.5-3.4c-0.6,5-1.3,10-2,15.1
		C452.7,121.5,444.4,121.5,436,121.5z"/>
	<path class="st1" d="M508.1,40.8c-0.5,1.9-2.4,2.2-3.7,3.3c-3.8,3-7.6,5.9-11.5,8.9c-0.6,0.5-1.2,1.2-2.1,0.8c0.2-2,0.3-4.1-0.5-6
		c-1.2-2.8-3.6-3.9-6.5-4.1c-1.3-0.1-2.6-0.2-4-0.4c-0.5-0.8-0.4-1.6,0.1-2.6C489.3,40.8,498.7,40.8,508.1,40.8z"/>
	<path class="st1" d="M490.9,87.2c0-6.8,0-13.5,0-20.3c0.4-1.1,0.9-2.1,1.9-3c5.8-5.1,11.3-10.5,17.6-15c0,9.2,0,18.3,0,27.5
		c-3.6,3.3-8.2,5.1-12.2,7.7c-1.8,1.1-3.7,2.1-5.5,3.1C492.2,87.6,491.5,88.1,490.9,87.2z"/>
	<path class="st1" d="M539.3,56.6c-0.2-2.2-0.3-4.4-0.5-6.7c-0.3-3.5-2-5.3-5.4-5.9c-1.8-0.3-3.6-0.5-5.5-0.7
		c-0.4-0.7-0.3-1.4,0-2.5c9.6,0,19.2,0,28.8,0c-1,3-3.6,4.5-5.7,6.4C547.4,50.6,543.9,54.3,539.3,56.6z"/>
	<path class="st3" d="M532.6,161.5c-0.2,0.3-0.5,0.6-0.9,0.1C531.9,161.1,532.2,160.9,532.6,161.5z"/>
	<path class="st3" d="M397.9,144.8c0.7-0.4,1-0.5,1.2-0.6C399.5,145,399.1,145,397.9,144.8z"/>
	<path class="st1" d="M244.5,121.9c-6.4-0.6-12.8-0.2-19.2-0.2c-4.9-0.1-9.7,0-14.6,0c-0.7-0.8-0.4-1.6-0.3-2.3
		c0.2-0.1,0.3-0.3,0.5-0.3c0.5-0.1,1,0,1.5-0.1c7.5-0.6,8.8-1.9,9-9.6c0.1-2.6,0.1-5.3,0.1-7.9c6.3-0.3,12.5,0.1,18.7,1.5
		c0,2.9,0,5.9,0,8.8c0.1,4,2.2,6.3,6.2,6.8c1.4,0.2,2.8,0.4,4.2,0.6C248.6,120.2,246.6,121,244.5,121.9z"/>
	<path class="st1" d="M212.3,102.6c-1,10.3-10.4,18.1-20.1,20.2c-6.4,1.4-12.9,1.3-19.1-1.4c1.3-1.3,2.6-2.6,4.2-3.5
		c3.2,1.3,6.5,1.3,9.9,0.8c6.8-1,10.9-5.7,10.9-12.6C202.8,104.5,207.4,102.9,212.3,102.6z"/>
	<path class="st1" d="M291.5,122c-5.6,0-11.2,0-16.5,0c-1.1-0.7-0.6-1.6-0.9-2.7c7.4,0.3,12.7-1.7,11.4-10.6
		c6.5-2.9,13.1-5.5,19.8-7.8c0.1,0.9,0.2,1.8,0.3,2.8C301,109.8,296.7,116.2,291.5,122z"/>
	<path class="st1" d="M366.2,71c0.7-5.2,1.1-10.3-0.2-15.4c2-0.9,4.1-1.7,6.4-1.7c3.8,0,5.5,2.3,4,5.8
		C374.4,64.7,370.6,68.1,366.2,71z"/>
	<path class="st1" d="M342,76.5c0.1,1.3,0.2,2.6,0.3,4c2.3,0.9,4.9-0.8,7.3,0.4c-5,2.9-10.2,4.9-15.8,6.4
		C336,83.2,339.1,79.9,342,76.5z"/>
</g>
</svg>
